<svg width="120" height="120" viewBox="0 0 120 120" fill="none" xmlns="http://www.w3.org/2000/svg">
  <rect width="120" height="120" rx="30" fill="#0F8D82"/>
  <path d="M60 72C68.2843 72 75 65.2843 75 57C75 48.7157 68.2843 42 60 42C51.7157 42 45 48.7157 45 57C45 65.2843 51.7157 72 60 72Z" fill="#fff"/>
  <path d="M43 46C47.4183 46 51 42.4183 51 38C51 33.5817 47.4183 30 43 30C38.5817 30 35 33.5817 35 38C35 42.4183 38.5817 46 43 46Z" fill="#fff"/>
  <path d="M77 46C81.4183 46 85 42.4183 85 38C85 33.5817 81.4183 30 77 30C72.5817 30 69 33.5817 69 38C69 42.4183 72.5817 46 77 46Z" fill="#fff"/>
  <path d="M43 77C47.4183 77 51 73.4183 51 69C51 64.5817 47.4183 61 43 61C38.5817 61 35 64.5817 35 69C35 73.4183 38.5817 77 43 77Z" fill="#fff"/>
  <path d="M77 77C81.4183 77 85 73.4183 85 69C85 64.5817 81.4183 61 77 61C72.5817 61 69 64.5817 69 69C69 73.4183 72.5817 77 77 77Z" fill="#fff"/>
</svg>
